<svg width="24" height="10" viewBox="0 0 24 10" fill="none" xmlns="http://www.w3.org/2000/svg">
<path d="M22.843 2.99991C22.7492 2.71298 22.6256 2.45588 22.4722 2.2286C22.3216 1.99849 22.1412 1.80247 21.931 1.64054C21.7236 1.4786 21.4878 1.35503 21.2236 1.2698C20.9594 1.18457 20.6697 1.14196 20.3543 1.14196C19.8373 1.14196 19.3671 1.27548 18.9438 1.54253C18.5205 1.80957 18.1839 2.20304 17.9339 2.72292C17.6839 3.24281 17.5589 3.88059 17.5589 4.63628C17.5589 5.39196 17.6853 6.02974 17.9381 6.54963C18.191 7.06951 18.5333 7.46298 18.9651 7.73003C19.3969 7.99707 19.8827 8.13059 20.4225 8.13059C20.9225 8.13059 21.3628 8.02406 21.7435 7.81099C22.127 7.59508 22.4253 7.2911 22.6384 6.89906C22.8543 6.50417 22.9623 6.03968 22.9623 5.50559L23.2861 5.57378H20.6611V4.63628H23.985V5.57378C23.985 6.29253 23.8316 6.91753 23.5248 7.44878C23.2208 7.98003 22.8003 8.39196 22.2634 8.68457C21.7293 8.97434 21.1157 9.11923 20.4225 9.11923C19.6498 9.11923 18.9708 8.93741 18.3856 8.57378C17.8032 8.21014 17.3486 7.69309 17.0219 7.02264C16.6981 6.35218 16.5361 5.55673 16.5361 4.63628C16.5361 3.94593 16.6285 3.3252 16.8131 2.77406C17.0006 2.22008 17.2648 1.74849 17.6057 1.35929C17.9466 0.970082 18.3501 0.671787 18.816 0.4644C19.2819 0.257014 19.7947 0.15332 20.3543 0.15332C20.8145 0.15332 21.2435 0.222923 21.6412 0.362127C22.0418 0.498491 22.3983 0.693093 22.7108 0.945934C23.0262 1.19593 23.289 1.49565 23.4992 1.84508C23.7094 2.19167 23.8543 2.57662 23.9339 2.99991H22.843Z" fill="black"/>
<path d="M15.1693 2.99991H14.1125C14.05 2.69593 13.9406 2.42889 13.7844 2.19878C13.6309 1.96866 13.4434 1.77548 13.2219 1.61923C13.0031 1.46014 12.7602 1.34082 12.4932 1.26128C12.2261 1.18173 11.9477 1.14196 11.6579 1.14196C11.1295 1.14196 10.6508 1.27548 10.2219 1.54253C9.79572 1.80957 9.45623 2.20304 9.20339 2.72292C8.95339 3.24281 8.82839 3.88059 8.82839 4.63628C8.82839 5.39196 8.95339 6.02974 9.20339 6.54963C9.45623 7.06951 9.79572 7.46298 10.2219 7.73003C10.6508 7.99707 11.1295 8.13059 11.6579 8.13059C11.9477 8.13059 12.2261 8.09082 12.4932 8.01128C12.7602 7.93173 13.0031 7.81383 13.2219 7.65758C13.4434 7.49849 13.6309 7.30389 13.7844 7.07378C13.9406 6.84082 14.05 6.57377 14.1125 6.27264H15.1693C15.0898 6.71866 14.9449 7.11781 14.7346 7.47008C14.5244 7.82235 14.2631 8.12207 13.9506 8.36923C13.6381 8.61355 13.2872 8.79963 12.898 8.92747C12.5116 9.05531 12.0983 9.11923 11.6579 9.11923C10.9136 9.11923 10.2517 8.93741 9.67214 8.57378C9.0926 8.21014 8.63663 7.69309 8.30424 7.02264C7.97186 6.35218 7.80566 5.55673 7.80566 4.63628C7.80566 3.71582 7.97186 2.92037 8.30424 2.24991C8.63663 1.57946 9.0926 1.06241 9.67214 0.698775C10.2517 0.335139 10.9136 0.15332 11.6579 0.15332C12.0983 0.15332 12.5116 0.217241 12.898 0.345082C13.2872 0.472923 13.6381 0.660423 13.9506 0.907582C14.2631 1.1519 14.5244 1.4502 14.7346 1.80247C14.9449 2.1519 15.0898 2.55105 15.1693 2.99991Z" fill="black"/>
<path d="M1.92658 5.06248V8.99998H0.920898V0.272705H1.92658V3.47725H2.01181C2.16522 3.13918 2.39533 2.87072 2.70215 2.67185C3.01181 2.47015 3.42374 2.3693 3.93794 2.3693C4.38397 2.3693 4.77459 2.45879 5.10982 2.63776C5.44505 2.8139 5.70499 3.08521 5.88965 3.45168C6.07715 3.81532 6.1709 4.27839 6.1709 4.84089V8.99998H5.16522V4.90907C5.16522 4.38918 5.03027 3.98719 4.76039 3.7031C4.49334 3.41617 4.1226 3.27271 3.64817 3.27271C3.31863 3.27271 3.02317 3.34231 2.76181 3.48151C2.50328 3.62072 2.29874 3.82384 2.14817 4.09089C2.00044 4.35793 1.92658 4.6818 1.92658 5.06248Z" fill="black"/>
</svg>
