<svg width="74" height="10" viewBox="0 0 74 10" fill="none" xmlns="http://www.w3.org/2000/svg">
<path d="M71.1058 9.13643C70.4751 9.13643 69.9311 8.99723 69.4737 8.71882C69.0192 8.43757 68.6683 8.04552 68.4212 7.54268C68.1768 7.037 68.0547 6.44893 68.0547 5.77848C68.0547 5.10802 68.1768 4.51711 68.4212 4.00575C68.6683 3.49154 69.0121 3.09098 69.4524 2.80404C69.8956 2.51427 70.4126 2.36938 71.0035 2.36938C71.3445 2.36938 71.6811 2.4262 72.0135 2.53984C72.3459 2.65348 72.6484 2.83813 72.9212 3.09382C73.1939 3.34666 73.4112 3.68189 73.5732 4.0995C73.7351 4.51711 73.816 5.03132 73.816 5.64211V6.06825H68.7706V5.19893H72.7933C72.7933 4.82961 72.7195 4.50007 72.5717 4.21029C72.4268 3.92052 72.2195 3.69183 71.9496 3.52421C71.6825 3.3566 71.3672 3.27279 71.0035 3.27279C70.603 3.27279 70.2564 3.37223 69.9638 3.57109C69.674 3.76711 69.451 4.02279 69.2947 4.33813C69.1385 4.65348 69.0604 4.99154 69.0604 5.35234V5.93188C69.0604 6.4262 69.1456 6.84524 69.316 7.18899C69.4893 7.5299 69.7294 7.78984 70.0362 7.96882C70.343 8.14495 70.6996 8.23302 71.1058 8.23302C71.37 8.23302 71.6087 8.19609 71.8217 8.12223C72.0376 8.04552 72.2237 7.93188 72.38 7.78132C72.5362 7.62791 72.657 7.43757 72.7422 7.21029L73.7138 7.48302C73.6115 7.81257 73.4396 8.10234 73.1982 8.35234C72.9567 8.5995 72.6584 8.79268 72.3033 8.93188C71.9481 9.06825 71.549 9.13643 71.1058 9.13643Z" fill="black"/>
<path d="M62.3485 5.06257V9.00007H61.3428V2.45461H62.3144V3.47734H62.3996C62.553 3.14495 62.786 2.87791 63.0985 2.6762C63.411 2.47166 63.8144 2.36938 64.3087 2.36938C64.7519 2.36938 65.1396 2.46029 65.472 2.64211C65.8044 2.82109 66.0629 3.09382 66.2476 3.46029C66.4323 3.82393 66.5246 4.28416 66.5246 4.84098V9.00007H65.5189V4.90916C65.5189 4.39495 65.3854 3.99438 65.1183 3.70745C64.8513 3.41768 64.4848 3.27279 64.0189 3.27279C63.6979 3.27279 63.411 3.3424 63.1581 3.4816C62.9081 3.62081 62.7107 3.82393 62.5658 4.09098C62.4209 4.35802 62.3485 4.68188 62.3485 5.06257Z" fill="black"/>
<path d="M56.8409 9.13643C56.25 9.13643 55.7315 8.99581 55.2855 8.71456C54.8423 8.43331 54.4957 8.03984 54.2457 7.53416C53.9986 7.02848 53.875 6.43757 53.875 5.76143C53.875 5.07961 53.9986 4.48444 54.2457 3.97592C54.4957 3.4674 54.8423 3.07251 55.2855 2.79126C55.7315 2.51001 56.25 2.36938 56.8409 2.36938C57.4318 2.36938 57.9489 2.51001 58.392 2.79126C58.8381 3.07251 59.1847 3.4674 59.4318 3.97592C59.6818 4.48444 59.8068 5.07961 59.8068 5.76143C59.8068 6.43757 59.6818 7.02848 59.4318 7.53416C59.1847 8.03984 58.8381 8.43331 58.392 8.71456C57.9489 8.99581 57.4318 9.13643 56.8409 9.13643ZM56.8409 8.23302C57.2898 8.23302 57.6591 8.11796 57.9489 7.88785C58.2386 7.65774 58.4531 7.35518 58.5923 6.98018C58.7315 6.60518 58.8011 6.19893 58.8011 5.76143C58.8011 5.32393 58.7315 4.91626 58.5923 4.53842C58.4531 4.16058 58.2386 3.85518 57.9489 3.62223C57.6591 3.38927 57.2898 3.27279 56.8409 3.27279C56.392 3.27279 56.0227 3.38927 55.733 3.62223C55.4432 3.85518 55.2287 4.16058 55.0895 4.53842C54.9503 4.91626 54.8807 5.32393 54.8807 5.76143C54.8807 6.19893 54.9503 6.60518 55.0895 6.98018C55.2287 7.35518 55.4432 7.65774 55.733 7.88785C56.0227 8.11796 56.392 8.23302 56.8409 8.23302Z" fill="black"/>
<path d="M49.917 9.00002V2.45457H50.8886V3.4432H50.9568C51.0761 3.11934 51.292 2.85656 51.6045 2.65485C51.917 2.45315 52.2693 2.35229 52.6613 2.35229C52.7352 2.35229 52.8275 2.35372 52.9383 2.35656C53.0491 2.3594 53.1329 2.36366 53.1897 2.36934V3.39207C53.1556 3.38355 53.0775 3.37076 52.9553 3.35372C52.836 3.33383 52.7096 3.32389 52.5761 3.32389C52.2579 3.32389 51.9738 3.39065 51.7238 3.52417C51.4766 3.65485 51.2806 3.83667 51.1357 4.06962C50.9937 4.29974 50.9227 4.56252 50.9227 4.85798V9.00002H49.917Z" fill="black"/>
<path d="M45.6761 9.13643C45.0455 9.13643 44.5014 8.99723 44.044 8.71882C43.5895 8.43757 43.2386 8.04552 42.9915 7.54268C42.7472 7.037 42.625 6.44893 42.625 5.77848C42.625 5.10802 42.7472 4.51711 42.9915 4.00575C43.2386 3.49154 43.5824 3.09098 44.0227 2.80404C44.4659 2.51427 44.983 2.36938 45.5739 2.36938C45.9148 2.36938 46.2514 2.4262 46.5838 2.53984C46.9162 2.65348 47.2188 2.83813 47.4915 3.09382C47.7642 3.34666 47.9815 3.68189 48.1435 4.0995C48.3054 4.51711 48.3864 5.03132 48.3864 5.64211V6.06825H43.3409V5.19893H47.3636C47.3636 4.82961 47.2898 4.50007 47.142 4.21029C46.9972 3.92052 46.7898 3.69183 46.5199 3.52421C46.2528 3.3566 45.9375 3.27279 45.5739 3.27279C45.1733 3.27279 44.8267 3.37223 44.5341 3.57109C44.2443 3.76711 44.0213 4.02279 43.8651 4.33813C43.7088 4.65348 43.6307 4.99154 43.6307 5.35234V5.93188C43.6307 6.4262 43.7159 6.84524 43.8864 7.18899C44.0597 7.5299 44.2997 7.78984 44.6065 7.96882C44.9134 8.14495 45.2699 8.23302 45.6761 8.23302C45.9403 8.23302 46.179 8.19609 46.392 8.12223C46.608 8.04552 46.794 7.93188 46.9503 7.78132C47.1065 7.62791 47.2273 7.43757 47.3125 7.21029L48.2841 7.48302C48.1818 7.81257 48.0099 8.10234 47.7685 8.35234C47.527 8.5995 47.2287 8.79268 46.8736 8.93188C46.5185 9.06825 46.1193 9.13643 45.6761 9.13643Z" fill="black"/>
<path d="M41.4897 2.45466V3.30693H38.0977V2.45466H41.4897ZM39.0863 0.886475H40.092V7.12511C40.092 7.4092 40.1332 7.62227 40.2156 7.76432C40.3008 7.90352 40.4087 7.99727 40.5394 8.04557C40.6729 8.09102 40.8136 8.11375 40.9613 8.11375C41.0721 8.11375 41.163 8.10807 41.234 8.0967C41.305 8.0825 41.3619 8.07113 41.4045 8.06261L41.609 8.96602C41.5408 8.99159 41.4457 9.01716 41.3235 9.04272C41.2014 9.07113 41.0465 9.08534 40.859 9.08534C40.5749 9.08534 40.2965 9.02426 40.0238 8.9021C39.7539 8.77994 39.5295 8.59386 39.3505 8.34386C39.1744 8.09386 39.0863 7.77852 39.0863 7.39784V0.886475Z" fill="black"/>
<path d="M37.0101 3.92052L36.1067 4.1762C36.0499 4.02563 35.9661 3.87933 35.8553 3.73728C35.7473 3.5924 35.5996 3.47308 35.4121 3.37933C35.2246 3.28558 34.9846 3.2387 34.6919 3.2387C34.2914 3.2387 33.9576 3.33103 33.6905 3.51569C33.4263 3.69751 33.2942 3.92904 33.2942 4.21029C33.2942 4.46029 33.3851 4.65774 33.5669 4.80262C33.7488 4.94751 34.0328 5.06825 34.4192 5.16484L35.3908 5.40348C35.976 5.54552 36.4121 5.76285 36.699 6.05546C36.986 6.34524 37.1294 6.71882 37.1294 7.1762C37.1294 7.5512 37.0215 7.88643 36.8056 8.18188C36.5925 8.47734 36.2942 8.71029 35.9107 8.88075C35.5272 9.0512 35.0811 9.13643 34.5726 9.13643C33.905 9.13643 33.3525 8.99154 32.915 8.70177C32.4775 8.412 32.2005 7.9887 32.084 7.43188L33.0385 7.19325C33.1294 7.54552 33.3013 7.80973 33.5542 7.98586C33.8098 8.162 34.1436 8.25007 34.5556 8.25007C35.0243 8.25007 35.3965 8.15063 35.6721 7.95177C35.9505 7.75007 36.0897 7.50859 36.0897 7.22734C36.0897 7.00007 36.0101 6.80973 35.851 6.65632C35.6919 6.50007 35.4476 6.38359 35.1181 6.30688L34.0272 6.0512C33.4277 5.90916 32.9874 5.68899 32.7061 5.39069C32.4277 5.08956 32.2885 4.71313 32.2885 4.26143C32.2885 3.89211 32.3922 3.56541 32.5996 3.28132C32.8098 2.99723 33.0954 2.77421 33.4561 2.61228C33.8198 2.45035 34.2317 2.36938 34.6919 2.36938C35.3397 2.36938 35.8482 2.51143 36.2175 2.79552C36.5897 3.07961 36.8539 3.45461 37.0101 3.92052Z" fill="black"/>
<path d="M27.8722 9.13643C27.2813 9.13643 26.7628 8.99581 26.3168 8.71456C25.8736 8.43331 25.527 8.03984 25.277 7.53416C25.0298 7.02848 24.9062 6.43757 24.9062 5.76143C24.9062 5.07961 25.0298 4.48444 25.277 3.97592C25.527 3.4674 25.8736 3.07251 26.3168 2.79126C26.7628 2.51001 27.2813 2.36938 27.8722 2.36938C28.4631 2.36938 28.9801 2.51001 29.4233 2.79126C29.8693 3.07251 30.2159 3.4674 30.4631 3.97592C30.7131 4.48444 30.8381 5.07961 30.8381 5.76143C30.8381 6.43757 30.7131 7.02848 30.4631 7.53416C30.2159 8.03984 29.8693 8.43331 29.4233 8.71456C28.9801 8.99581 28.4631 9.13643 27.8722 9.13643ZM27.8722 8.23302C28.321 8.23302 28.6903 8.11796 28.9801 7.88785C29.2699 7.65774 29.4844 7.35518 29.6236 6.98018C29.7628 6.60518 29.8324 6.19893 29.8324 5.76143C29.8324 5.32393 29.7628 4.91626 29.6236 4.53842C29.4844 4.16058 29.2699 3.85518 28.9801 3.62223C28.6903 3.38927 28.321 3.27279 27.8722 3.27279C27.4233 3.27279 27.054 3.38927 26.7642 3.62223C26.4744 3.85518 26.2599 4.16058 26.1207 4.53842C25.9815 4.91626 25.9119 5.32393 25.9119 5.76143C25.9119 6.19893 25.9815 6.60518 26.1207 6.98018C26.2599 7.35518 26.4744 7.65774 26.7642 7.88785C27.054 8.11796 27.4233 8.23302 27.8722 8.23302Z" fill="black"/>
<path d="M23.771 2.45466V3.30693H20.3789V2.45466H23.771ZM21.3675 0.886475H22.3732V7.12511C22.3732 7.4092 22.4144 7.62227 22.4968 7.76432C22.582 7.90352 22.69 7.99727 22.8207 8.04557C22.9542 8.09102 23.0948 8.11375 23.2425 8.11375C23.3533 8.11375 23.4442 8.10807 23.5153 8.0967C23.5863 8.0825 23.6431 8.07113 23.6857 8.06261L23.8903 8.96602C23.8221 8.99159 23.7269 9.01716 23.6048 9.04272C23.4826 9.07113 23.3278 9.08534 23.1403 9.08534C22.8562 9.08534 22.5778 9.02426 22.305 8.9021C22.0352 8.77994 21.8107 8.59386 21.6317 8.34386C21.4556 8.09386 21.3675 7.77852 21.3675 7.39784V0.886475Z" fill="black"/>
<path d="M19.2914 3.92052L18.388 4.1762C18.3311 4.02563 18.2473 3.87933 18.1365 3.73728C18.0286 3.5924 17.8809 3.47308 17.6934 3.37933C17.5059 3.28558 17.2658 3.2387 16.9732 3.2387C16.5726 3.2387 16.2388 3.33103 15.9718 3.51569C15.7076 3.69751 15.5755 3.92904 15.5755 4.21029C15.5755 4.46029 15.6664 4.65774 15.8482 4.80262C16.03 4.94751 16.3141 5.06825 16.7005 5.16484L17.6721 5.40348C18.2573 5.54552 18.6934 5.76285 18.9803 6.05546C19.2672 6.34524 19.4107 6.71882 19.4107 7.1762C19.4107 7.5512 19.3027 7.88643 19.0868 8.18188C18.8738 8.47734 18.5755 8.71029 18.1919 8.88075C17.8084 9.0512 17.3624 9.13643 16.8539 9.13643C16.1863 9.13643 15.6337 8.99154 15.1962 8.70177C14.7587 8.412 14.4817 7.9887 14.3652 7.43188L15.3198 7.19325C15.4107 7.54552 15.5826 7.80973 15.8354 7.98586C16.0911 8.162 16.4249 8.25007 16.8368 8.25007C17.3056 8.25007 17.6777 8.15063 17.9533 7.95177C18.2317 7.75007 18.3709 7.50859 18.3709 7.22734C18.3709 7.00007 18.2914 6.80973 18.1323 6.65632C17.9732 6.50007 17.7289 6.38359 17.3993 6.30688L16.3084 6.0512C15.709 5.90916 15.2686 5.68899 14.9874 5.39069C14.709 5.08956 14.5698 4.71313 14.5698 4.26143C14.5698 3.89211 14.6735 3.56541 14.8809 3.28132C15.0911 2.99723 15.3766 2.77421 15.7374 2.61228C16.101 2.45035 16.513 2.36938 16.9732 2.36938C17.6209 2.36938 18.1294 2.51143 18.4988 2.79552C18.8709 3.07961 19.1351 3.45461 19.2914 3.92052Z" fill="black"/>
<path d="M10.4144 9.13643C9.78374 9.13643 9.2397 8.99723 8.78231 8.71882C8.32777 8.43757 7.97692 8.04552 7.72976 7.54268C7.48544 7.037 7.36328 6.44893 7.36328 5.77848C7.36328 5.10802 7.48544 4.51711 7.72976 4.00575C7.97692 3.49154 8.32067 3.09098 8.76101 2.80404C9.20419 2.51427 9.72124 2.36938 10.3121 2.36938C10.6531 2.36938 10.9897 2.4262 11.3221 2.53984C11.6545 2.65348 11.957 2.83813 12.2298 3.09382C12.5025 3.34666 12.7198 3.68189 12.8817 4.0995C13.0437 4.51711 13.1246 5.03132 13.1246 5.64211V6.06825H8.07919V5.19893H12.1019C12.1019 4.82961 12.0281 4.50007 11.8803 4.21029C11.7354 3.92052 11.5281 3.69183 11.2582 3.52421C10.9911 3.3566 10.6758 3.27279 10.3121 3.27279C9.91158 3.27279 9.56499 3.37223 9.27237 3.57109C8.9826 3.76711 8.75959 4.02279 8.60334 4.33813C8.44709 4.65348 8.36896 4.99154 8.36896 5.35234V5.93188C8.36896 6.4262 8.45419 6.84524 8.62464 7.18899C8.79794 7.5299 9.038 7.78984 9.34482 7.96882C9.65163 8.14495 10.0082 8.23302 10.4144 8.23302C10.6786 8.23302 10.9173 8.19609 11.1303 8.12223C11.3462 8.04552 11.5323 7.93188 11.6886 7.78132C11.8448 7.62791 11.9656 7.43757 12.0508 7.21029L13.0224 7.48302C12.9201 7.81257 12.7482 8.10234 12.5067 8.35234C12.2653 8.5995 11.967 8.79268 11.6119 8.93188C11.2567 9.06825 10.8576 9.13643 10.4144 9.13643Z" fill="black"/>
<path d="M0.579102 1.21021V0.272705H7.12456V1.21021H4.38024V8.99998H3.32342V1.21021H0.579102Z" fill="black"/>
</svg>
